<?xml version="1.0" standalone="no"?>
<!DOCTYPE svg PUBLIC "-//W3C//DTD SVG 20010904//EN"
 "http://www.w3.org/TR/2001/REC-SVG-20010904/DTD/svg10.dtd">
<svg version="1.0" xmlns="http://www.w3.org/2000/svg"
 width="512.000000pt" height="512.000000pt" viewBox="0 0 512.000000 512.000000"
 preserveAspectRatio="xMidYMid meet">
<metadata>
Created by potrace 1.14, written by Peter Selinger 2001-2017
</metadata>
<g transform="translate(0.000000,512.000000) scale(0.100000,-0.100000)"
fill="#000000" stroke="none">
<path d="M0 2560 l0 -2560 2560 0 2560 0 0 2560 0 2560 -2560 0 -2560 0 0
-2560z m2140 1370 c198 -24 387 -95 518 -195 118 -89 218 -241 264 -401 32
-112 32 -314 0 -427 -58 -204 -190 -366 -370 -453 -65 -32 -84 -54 -47 -54 7
0 55 -21 106 -47 173 -86 302 -245 359 -443 31 -107 39 -344 15 -461 -55 -274
-234 -492 -491 -599 -318 -132 -785 -115 -1095 41 -104 52 -226 146 -288 221
-108 132 -185 331 -198 516 l-6 82 284 0 284 0 17 -78 c50 -246 218 -372 493
-372 203 0 326 65 399 210 85 172 64 403 -49 528 -95 106 -239 150 -520 161
l-160 6 0 240 0 240 155 6 c197 9 270 23 372 74 73 36 131 96 164 169 25 53
28 73 28 156 -1 146 -41 237 -136 306 -71 53 -152 75 -273 75 -235 0 -371
-100 -425 -311 l-16 -65 -289 -3 -288 -2 7 75 c37 404 299 690 722 785 128 29
323 37 464 20z"/>
</g>
</svg>
